<svg width="78" height="120" viewBox="0 0 78 120" fill="none" xmlns="http://www.w3.org/2000/svg">
<g clip-path="url(#clip0_802_12005)">
<path fill-rule="evenodd" clip-rule="evenodd" d="M26.3956 118.069C32.0076 107.916 35.099 88.601 36.288 54.775H40.3781C41.5671 88.6505 44.6585 107.966 50.2229 118.069C46.5133 119.307 42.4708 120 38.3331 120C34.1954 120 30.2003 119.356 26.3956 118.069ZM476.309 85.481C476.309 87.6105 475.692 89.443 474.358 91.077C472.552 93.207 469.794 94.2965 466.132 94.2965H455.574V64.185H473.981V69.484H461.376V75.8235H466.084C469.889 75.8235 472.599 76.913 474.358 79.191C475.692 80.8255 476.309 82.9055 476.309 85.481ZM470.222 85.035C470.222 83.5 469.747 82.41 468.89 81.6675C467.987 80.875 466.703 80.4785 465.085 80.4785H461.423V89.4925H465.085C466.703 89.4925 467.987 89.1455 468.89 88.403C469.699 87.66 470.222 86.521 470.222 85.035ZM508.985 94.2965H502.469L499.994 87.561H488.105L485.63 94.2965H479.355L490.863 64.185H497.472L508.985 94.2965ZM498.236 82.559L494.002 70.227L489.91 82.559H498.236ZM535.856 94.2965H530.006V81.2215H518.352V94.2965H512.501V64.185H518.352V76.3185H530.006V64.185H535.856V94.2965ZM565.722 94.2965H558.254L547.553 79.29L547.411 94.2965H541.561V64.185H547.411V77.0615L557.971 64.185H564.916L552.88 77.755L565.722 94.2965ZM414.435 110.293H416.955V49.9216H414.435V110.293ZM153.428 99.1995H140.967V59.183H166.649C179.776 59.183 179.776 70.425 179.776 72.9015C179.776 75.526 179.776 87.66 166.649 87.66H153.428V99.1995ZM153.38 69.088V77.7055H162.321C163.891 77.7055 167.362 77.7055 167.362 73.248C167.362 69.1375 163.843 69.1375 162.463 69.1375H153.38V69.088ZM173.593 99.1995H186.672L189.715 90.978H203.65L206.599 99.1995H227.478L237.37 70.326L247.262 99.1995H260.389L244.076 59.183H230.426L216.967 92.5135L203.698 59.183H189.715L173.593 99.1995ZM196.659 70.4745L200.654 81.7665H192.712L196.564 70.3755L196.659 70.4745ZM363.07 74.387C376.196 74.387 376.196 82.1625 376.196 86.521C376.196 91.077 376.196 99.249 363.213 99.249H337.911V59.2325H374.342V69.2365H350.372V74.4365H363.07V74.387ZM361.025 89.8885C363.784 89.8885 363.784 87.6105 363.784 86.6695C363.784 85.778 363.784 83.7475 360.978 83.7475H350.372V89.938H361.025V89.8885ZM119.327 99.1995H105.82L111.955 87.9075L96.5461 59.183H110.481L118.471 76.2195L126.509 59.183H140.016L119.327 99.1995ZM290.922 99.1995H273.896C264.527 99.1995 257.25 91.176 257.25 79.736C257.25 66.8595 264.574 59.183 274.038 59.183H290.922V69.187H280.031C273.278 69.187 269.711 71.267 269.711 79.538C269.711 87.759 273.373 89.2945 280.031 89.2945H290.922V99.1995ZM335.39 99.1995H322.93V70.97L308.377 99.1995H293.49V59.183H305.998V86.719L320.219 59.183H335.39V99.1995ZM38.3806 52.299C57.3571 52.299 73.5273 65.968 73.5273 83.599C73.5273 89.195 71.7675 94.8905 68.3906 100.141C59.4022 91.325 51.4595 75.1795 48.4159 56.0625C48.0826 55.914 45.3719 55.2705 43.2793 55.122C43.2793 57.895 45.5146 98.9515 59.4493 113.512C69.77 106.331 76.6661 93.9495 76.6661 80.033C76.6661 60.916 63.8723 44.9195 46.7035 40.9575C45.7999 28.0809 45.7999 22.8808 45.7048 16.492H42.661C42.661 16.5415 42.8036 34.4202 42.8512 40.3137C41.8049 40.1651 40.7586 40.1156 39.6172 40.0165C39.6172 29.7153 39.6172 10.9451 39.5696 0H37.0489C37.0014 10.9451 37.0014 29.7648 37.0014 40.0165C35.86 40.0661 34.8137 40.1651 33.7673 40.3137C33.8149 34.4202 33.9576 16.591 33.9576 16.492H30.8662C30.8662 22.8808 30.8662 28.0809 29.9626 40.9575C12.7936 44.9195 0 60.916 0 80.033C0 93.999 6.80101 106.331 17.2166 113.512C31.1516 98.9515 33.3869 57.895 33.3869 55.122C31.2942 55.2705 28.5833 55.914 28.2504 56.0625C25.1591 75.1795 17.2641 91.325 8.27538 100.141C4.85106 94.94 3.13894 89.195 3.13894 83.599C3.23406 65.9185 19.3092 52.299 38.3806 52.299Z" fill="#888888"/>
</g>
<defs>
<clipPath id="clip0_802_12005">
<rect width="78" height="120" fill="white"/>
</clipPath>
</defs>
</svg>
